<svg width="45" height="44" viewBox="0 0 45 44" fill="none" xmlns="http://www.w3.org/2000/svg">
<g id="clipboard">
<path id="Vector" d="M31.7099 5.56164L29.9598 5.09535C25.01 3.77649 22.535 3.11708 20.5852 4.23644C18.6354 5.3558 17.9723 7.81681 16.6459 12.7388L14.7702 19.6996C13.4439 24.6216 12.7807 27.0826 13.9064 29.0214C15.0321 30.9603 17.5071 31.6196 22.4571 32.9385L24.2072 33.4049C29.157 34.7236 31.632 35.383 33.5817 34.2638C35.5315 33.1444 36.1948 30.6833 37.521 25.7613L39.3967 18.8005C40.7231 13.8785 41.3862 11.4175 40.2606 9.47871C39.1349 7.53992 36.6599 6.88049 31.7099 5.56164Z" stroke="#3E03B2" stroke-width="2.75"/>
<path id="Vector_2" d="M31.3979 13.6272C31.3979 15.1197 30.1811 16.3296 28.6801 16.3296C27.1792 16.3296 25.9624 15.1197 25.9624 13.6272C25.9624 12.1347 27.1792 10.9248 28.6801 10.9248C30.1811 10.9248 31.3979 12.1347 31.3979 13.6272Z" stroke="#3E03B2" stroke-width="2.75"/>
<path id="Vector_3" d="M22.4998 38.4014L20.754 38.8768C15.8156 40.2216 13.3464 40.894 11.4012 39.7526C9.45599 38.6114 8.79437 36.1021 7.47115 31.0835L5.59984 23.9861C4.27662 18.9676 3.615 16.4583 4.73809 14.4815C5.70957 12.7715 7.83317 12.8337 10.5832 12.8335" stroke="#3E03B2" stroke-width="2.75" stroke-linecap="round"/>
</g>
</svg>
