<svg width="45" height="44" viewBox="0 0 45 44" fill="none" xmlns="http://www.w3.org/2000/svg">
<g id="cloud-upload">
<path id="Vector" d="M32.5421 16.5203C32.5557 16.5202 32.5694 16.5202 32.5832 16.5202C37.1396 16.5202 40.8332 20.2206 40.8332 24.7854C40.8332 29.0396 37.6248 32.5431 33.4998 33M32.5421 16.5203C32.5692 16.2178 32.5832 15.9114 32.5832 15.6018C32.5832 10.0227 28.0688 5.5 22.4998 5.5C17.2258 5.5 12.8974 9.55656 12.4539 14.7252M32.5421 16.5203C32.3546 18.6039 31.5356 20.5051 30.2783 22.0303M12.4539 14.7252C7.8038 15.1685 4.1665 19.0922 4.1665 23.8669C4.1665 28.3098 7.31573 32.0159 11.4998 32.8667M12.4539 14.7252C12.7433 14.6976 13.0366 14.6835 13.3332 14.6835C15.3972 14.6835 17.3019 15.3669 18.8341 16.5202" stroke="#3E03B2" stroke-width="2.75" stroke-linecap="round" stroke-linejoin="round"/>
<path id="Vector_2" d="M22.4998 23.8333V38.4999M22.4998 23.8333C21.2161 23.8333 18.8176 27.4895 17.9165 28.4166M22.4998 23.8333C23.7835 23.8333 26.1821 27.4895 27.0832 28.4166" stroke="#3E03B2" stroke-width="2.75" stroke-linecap="round" stroke-linejoin="round"/>
</g>
</svg>
