<svg width="44" height="44" viewBox="0 0 44 44" fill="none" xmlns="http://www.w3.org/2000/svg">
<g id="finger-print-scan">
<path id="Vector" d="M3.6665 14.6412C3.86733 10.5891 4.46809 8.06273 6.26529 6.26553C8.06249 4.46834 10.5889 3.86757 14.641 3.66675M40.3332 14.6412C40.1324 10.5891 39.5316 8.06273 37.7344 6.26553C35.9372 4.46834 33.4109 3.86757 29.3587 3.66675M29.3587 40.3334C33.4109 40.1327 35.9372 39.5319 37.7344 37.7347C39.5316 35.9374 40.1324 33.4111 40.3332 29.3589M14.641 40.3334C10.5889 40.1327 8.06249 39.5319 6.26529 37.7347C4.46809 35.9374 3.86733 33.4111 3.6665 29.3589" stroke="#3E03B2" stroke-width="2.75" stroke-linecap="round" stroke-linejoin="round"/>
<path id="Vector_2" d="M30.2769 16.3944C30.8583 17.4495 31.1668 18.6113 31.1668 19.7983V25.0811C31.1668 27.161 30.1843 29.2099 28.4819 30.6806C26.7795 32.1513 24.4077 33 22.0002 33M12.8335 20.6769V25.0816C12.8326 27.3887 14.032 29.6577 16.1353 31.1703M26.5835 12.0609C24.4781 11.0109 21.9761 10.7263 19.6278 11.2698C17.2796 11.8134 15.2775 13.1405 14.0619 14.9592M25.0554 21.0434V19.4172C25.0737 18.2502 24.0779 17.1997 22.7245 16.9231M18.9449 21.7373V24.5309C18.935 25.0453 19.1154 25.5499 19.4621 25.9772C20.5438 27.3112 22.9641 27.4637 24.2735 26.2581" stroke="#3E03B2" stroke-width="2.75" stroke-linecap="round" stroke-linejoin="round"/>
</g>
</svg>
