<svg width="45" height="44" viewBox="0 0 45 44" fill="none" xmlns="http://www.w3.org/2000/svg">
<g id="image-01">
<path id="Vector" d="M14.25 16.5C15.7688 16.5 17 15.2688 17 13.75C17 12.2312 15.7688 11 14.25 11C12.7312 11 11.5 12.2312 11.5 13.75C11.5 15.2688 12.7312 16.5 14.25 16.5Z" stroke="#3E03B2" stroke-width="2.75" stroke-linecap="round" stroke-linejoin="round"/>
<path id="Vector_2" d="M5.0835 21.9999C5.0835 13.7896 5.0835 9.68448 7.6341 7.13386C10.1847 4.58325 14.2899 4.58325 22.5002 4.58325C30.7104 4.58325 34.8156 4.58325 37.3663 7.13386C39.9168 9.68448 39.9168 13.7896 39.9168 21.9999C39.9168 30.2101 39.9168 34.3153 37.3663 36.8661C34.8156 39.4166 30.7104 39.4166 22.5002 39.4166C14.2899 39.4166 10.1847 39.4166 7.6341 36.8661C5.0835 34.3153 5.0835 30.2101 5.0835 21.9999Z" stroke="#3E03B2" stroke-width="2.75"/>
<path id="Vector_3" d="M9.6665 38.4999C17.6827 28.9207 26.669 16.2874 39.9119 24.8276" stroke="#3E03B2" stroke-width="2.75"/>
</g>
</svg>
