<svg width="20" height="20" viewBox="0 0 20 20" fill="none" xmlns="http://www.w3.org/2000/svg">
<g id="location-04">
<path id="Vector" d="M5.83398 15C4.30988 15.3431 3.33398 15.8703 3.33398 16.4614C3.33398 17.4953 6.31875 18.3333 10.0007 18.3333C13.6826 18.3333 16.6673 17.4953 16.6673 16.4614C16.6673 15.8703 15.6914 15.3431 14.1673 15" stroke="#898A8A" stroke-width="1.5" stroke-linecap="round"/>
<path id="Vector_2" d="M12.0827 7.49984C12.0827 8.65042 11.1499 9.58317 9.99935 9.58317C8.84877 9.58317 7.91602 8.65042 7.91602 7.49984C7.91602 6.34925 8.84877 5.4165 9.99935 5.4165C11.1499 5.4165 12.0827 6.34925 12.0827 7.49984Z" stroke="#898A8A" stroke-width="1.5"/>
<path id="Vector_3" d="M11.0472 14.5778C10.7661 14.8485 10.3904 14.9998 9.99952 14.9998C9.60852 14.9998 9.23285 14.8485 8.95177 14.5778C6.37793 12.0838 2.92867 9.29775 4.61077 5.25295C5.52027 3.06594 7.70347 1.6665 9.99952 1.6665C12.2955 1.6665 14.4787 3.06595 15.3882 5.25295C17.0682 9.29267 13.6273 12.0924 11.0472 14.5778Z" stroke="#898A8A" stroke-width="1.5"/>
</g>
</svg>
