<svg width="45" height="44" viewBox="0 0 45 44" fill="none" xmlns="http://www.w3.org/2000/svg">
<g id="search-visual">
<path id="Vector" d="M16.9696 3.66675C11.8241 3.78399 8.81873 4.27378 6.76529 6.32011C4.96809 8.11108 4.36733 10.6287 4.1665 14.6667M28.0301 3.66675C33.1755 3.78399 36.1809 4.27378 38.2344 6.32011C40.0316 8.11108 40.6324 10.6287 40.8332 14.6667M28.0301 40.3335C33.1755 40.2163 36.1809 39.7264 38.2344 37.6801C40.0316 35.8891 40.6324 33.3716 40.8332 29.3335M16.9696 40.3335C11.8241 40.2163 8.81873 39.7264 6.76529 37.6801C4.96809 35.8891 4.36733 33.3716 4.1665 29.3335" stroke="#3E03B2" stroke-width="2.75" stroke-linecap="round" stroke-linejoin="round"/>
<path id="Vector_2" d="M28.0002 27.5L31.6668 31.1666M29.8335 21.0833C29.8335 16.5269 26.1399 12.8333 21.5835 12.8333C17.0271 12.8333 13.3335 16.5269 13.3335 21.0833C13.3335 25.6397 17.0271 29.3333 21.5835 29.3333C26.1399 29.3333 29.8335 25.6397 29.8335 21.0833Z" stroke="#3E03B2" stroke-width="2.75" stroke-linecap="round" stroke-linejoin="round"/>
</g>
</svg>
