<svg width="45" height="44" viewBox="0 0 45 44" fill="none" xmlns="http://www.w3.org/2000/svg">
<g id="share-02">
<path id="Vector" d="M17 8.25C10.5914 10.4519 6 16.3932 6 23.377C6 25.5895 6.46079 27.6973 7.29417 29.6146M28 8.25C34.4086 10.4519 39 16.3932 39 23.377C39 25.2516 38.6691 27.0512 38.0612 28.7236M30.75 37.2709C28.323 38.6357 25.5054 39.4167 22.5 39.4167C19.4946 39.4167 16.6769 38.6357 14.25 37.2709" stroke="#3E03B2" stroke-width="2.75"/>
<path id="Vector_2" d="M28 9.16675C28 12.2043 25.5377 14.6667 22.5 14.6667C19.4623 14.6667 17 12.2043 17 9.16675C17 6.12919 19.4623 3.66675 22.5 3.66675C25.5377 3.66675 28 6.12919 28 9.16675Z" stroke="#3E03B2" stroke-width="2.75"/>
<path id="Vector_3" d="M9.6665 40.3333C12.7041 40.3333 15.1665 37.8708 15.1665 34.8333C15.1665 31.7957 12.7041 29.3333 9.6665 29.3333C6.62894 29.3333 4.1665 31.7957 4.1665 34.8333C4.1665 37.8708 6.62894 40.3333 9.6665 40.3333Z" stroke="#3E03B2" stroke-width="2.75"/>
<path id="Vector_4" d="M35.3335 40.3333C38.3711 40.3333 40.8335 37.8708 40.8335 34.8333C40.8335 31.7957 38.3711 29.3333 35.3335 29.3333C32.2959 29.3333 29.8335 31.7957 29.8335 34.8333C29.8335 37.8708 32.2959 40.3333 35.3335 40.3333Z" stroke="#3E03B2" stroke-width="2.75"/>
</g>
</svg>
