<svg width="45" height="44" viewBox="0 0 45 44" fill="none" xmlns="http://www.w3.org/2000/svg">
<g id="video-replay">
<path id="Vector" d="M32.9502 39.1145C30.8016 39.4164 27.9993 39.4164 24.2419 39.4164H20.7586C13.3692 39.4164 9.6746 39.4164 7.37905 37.1207C5.0835 34.8252 5.0835 31.1307 5.0835 23.7414V20.2581C5.0835 12.8687 5.0835 9.1741 7.37905 6.87854C9.6746 4.58301 13.3692 4.58301 20.7586 4.58301H24.2419C31.6312 4.58301 35.3257 4.58301 37.6212 6.87854C39.9169 9.1741 39.9169 12.8687 39.9169 20.2581V23.7414C39.9169 25.9564 39.9169 27.8395 39.8549 29.4522C39.8054 30.7449 39.7807 31.3912 39.2912 31.6326C38.8017 31.8743 38.2543 31.4869 37.159 30.7121L34.6919 28.9664" stroke="#3E03B2" stroke-width="2.75" stroke-linecap="round" stroke-linejoin="round"/>
<path id="Vector_2" d="M27.8996 22.7237C27.5756 23.8727 26.0442 24.6846 22.9818 26.3086C20.0212 27.8783 18.5409 28.6633 17.348 28.3478C16.8548 28.2173 16.4055 27.9696 16.0431 27.6282C15.1665 26.8029 15.1665 25.2018 15.1665 21.9999C15.1665 18.798 15.1665 17.1969 16.0431 16.3715C16.4055 16.0302 16.8548 15.7825 17.348 15.6521C18.5409 15.3366 20.0212 16.1215 22.9818 17.6913C26.0442 19.3152 27.5756 20.1272 27.8996 21.2761C28.0332 21.7504 28.0332 22.2494 27.8996 22.7237Z" stroke="#3E03B2" stroke-width="2.75" stroke-linejoin="round"/>
</g>
</svg>
